<svg height="3038" width="720" xmlns="http://www.w3.org/2000/svg">
<rect height="3038" fill="#555" width="720"></rect>
<text fill="#7f7" font-family="Courier New" font-size="12" xml:space="preserve">
<tspan x="10" y="26">17 megabytes installed</tspan>
<tspan x="10" y="42"></tspan>
<tspan x="10" y="58">node_modules</tspan>
<tspan x="10" y="74">└─┬ egg@1.1.0 </tspan>
<tspan x="10" y="90">  ├─┬ accepts@1.3.3 </tspan>
<tspan x="10" y="106">  │ └── negotiator@0.6.1 </tspan>
<tspan x="10" y="122">  ├─┬ agentkeepalive@3.1.0 </tspan>
<tspan x="10" y="138">  │ └── humanize-ms@1.2.0 </tspan>
<tspan x="10" y="154">  ├─┬ cluster-client@1.6.3 </tspan>
<tspan x="10" y="170">  │ ├─┬ byte@1.1.5 </tspan>
<tspan x="10" y="186">  │ │ ├─┬ debug@2.2.0 </tspan>
<tspan x="10" y="202">  │ │ │ └── ms@0.7.1 </tspan>
<tspan x="10" y="218">  │ │ ├── is-type-of@0.3.1 </tspan>
<tspan x="10" y="234">  │ │ ├── long@2.2.5 </tspan>
<tspan x="10" y="250">  │ │ └── utility@1.4.0 </tspan>
<tspan x="10" y="266">  │ ├── json-stringify-safe@5.0.1 </tspan>
<tspan x="10" y="282">  │ ├── long@3.2.0 </tspan>
<tspan x="10" y="298">  │ ├─┬ sdk-base@3.1.1 </tspan>
<tspan x="10" y="314">  │ │ └── await-event@2.1.0 </tspan>
<tspan x="10" y="330">  │ ├── serialize-json@1.0.1 </tspan>
<tspan x="10" y="346">  │ └── tcp-base@3.0.0 </tspan>
<tspan x="10" y="362">  ├── co@4.6.0 </tspan>
<tspan x="10" y="378">  ├─┬ debug@2.6.4 </tspan>
<tspan x="10" y="394">  │ └── ms@0.7.3 </tspan>
<tspan x="10" y="410">  ├── delegates@1.0.0 </tspan>
<tspan x="10" y="426">  ├─┬ egg-cluster@1.6.2 </tspan>
<tspan x="10" y="442">  │ ├── cfork@1.6.0 </tspan>
<tspan x="10" y="458">  │ ├── cluster-reload@1.0.2 </tspan>
<tspan x="10" y="474">  │ ├── detect-port@1.1.1 </tspan>
<tspan x="10" y="490">  │ ├── egg-utils@2.1.0 </tspan>
<tspan x="10" y="506">  │ └── get-ready@2.0.1 </tspan>
<tspan x="10" y="522">  ├─┬ egg-cookies@2.2.1 </tspan>
<tspan x="10" y="538">  │ └── scmp@2.0.0 </tspan>
<tspan x="10" y="554">  ├─┬ egg-core@3.4.1 </tspan>
<tspan x="10" y="570">  │ ├── depd@1.1.0 </tspan>
<tspan x="10" y="586">  │ ├─┬ egg-path-matching@1.0.0 </tspan>
<tspan x="10" y="602">  │ │ └─┬ path-to-regexp@1.7.0 </tspan>
<tspan x="10" y="618">  │ │   └── isarray@0.0.1 </tspan>
<tspan x="10" y="634">  │ ├─┬ globby@6.1.0 </tspan>
<tspan x="10" y="650">  │ │ ├─┬ array-union@1.0.2 </tspan>
<tspan x="10" y="666">  │ │ │ └── array-uniq@1.0.3 </tspan>
<tspan x="10" y="682">  │ │ ├─┬ glob@7.1.1 </tspan>
<tspan x="10" y="698">  │ │ │ ├── fs.realpath@1.0.0 </tspan>
<tspan x="10" y="714">  │ │ │ ├── inflight@1.0.6 </tspan>
<tspan x="10" y="730">  │ │ │ ├── inherits@2.0.3 </tspan>
<tspan x="10" y="746">  │ │ │ ├─┬ minimatch@3.0.3 </tspan>
<tspan x="10" y="762">  │ │ │ │ └─┬ brace-expansion@1.1.7 </tspan>
<tspan x="10" y="778">  │ │ │ │   ├── balanced-match@0.4.2 </tspan>
<tspan x="10" y="794">  │ │ │ │   └── concat-map@0.0.1 </tspan>
<tspan x="10" y="810">  │ │ │ └── path-is-absolute@1.0.1 </tspan>
<tspan x="10" y="826">  │ │ ├── object-assign@4.1.1 </tspan>
<tspan x="10" y="842">  │ │ ├── pify@2.3.0 </tspan>
<tspan x="10" y="858">  │ │ └─┬ pinkie-promise@2.0.1 </tspan>
<tspan x="10" y="874">  │ │   └── pinkie@2.0.4 </tspan>
<tspan x="10" y="890">  │ ├── inflection@1.12.0 </tspan>
<tspan x="10" y="906">  │ ├─┬ koa@1.4.0 </tspan>
<tspan x="10" y="922">  │ │ ├── composition@2.3.0 </tspan>
<tspan x="10" y="938">  │ │ ├── content-disposition@0.5.2 </tspan>
<tspan x="10" y="954">  │ │ ├─┬ cookies@0.7.0 </tspan>
<tspan x="10" y="970">  │ │ │ └── keygrip@1.0.1 </tspan>
<tspan x="10" y="986">  │ │ ├── destroy@1.0.4 </tspan>
<tspan x="10" y="1002">  │ │ ├── error-inject@1.0.0 </tspan>
<tspan x="10" y="1018">  │ │ ├── fresh@0.3.0 </tspan>
<tspan x="10" y="1034">  │ │ ├─┬ http-assert@1.2.0 </tspan>
<tspan x="10" y="1050">  │ │ │ ├── deep-equal@1.0.1 </tspan>
<tspan x="10" y="1066">  │ │ │ └─┬ http-errors@1.4.0 </tspan>
<tspan x="10" y="1082">  │ │ │   └── inherits@2.0.1 </tspan>
<tspan x="10" y="1098">  │ │ ├─┬ http-errors@1.6.1 </tspan>
<tspan x="10" y="1114">  │ │ │ └── setprototypeof@1.0.3 </tspan>
<tspan x="10" y="1130">  │ │ ├── on-finished@2.3.0 </tspan>
<tspan x="10" y="1146">  │ │ ├── only@0.0.2 </tspan>
<tspan x="10" y="1162">  │ │ ├── parseurl@1.3.1 </tspan>
<tspan x="10" y="1178">  │ │ ├─┬ type-is@1.6.15 </tspan>
<tspan x="10" y="1194">  │ │ │ └── media-typer@0.3.0 </tspan>
<tspan x="10" y="1210">  │ │ └── vary@1.1.1 </tspan>
<tspan x="10" y="1226">  │ ├── koa-router@5.4.1 </tspan>
<tspan x="10" y="1242">  │ ├── node-homedir@1.0.0 </tspan>
<tspan x="10" y="1258">  │ └─┬ ready-callback@2.0.1 </tspan>
<tspan x="10" y="1274">  │   ├─┬ once@1.4.0 </tspan>
<tspan x="10" y="1290">  │   │ └── wrappy@1.0.2 </tspan>
<tspan x="10" y="1306">  │   └── uuid@3.0.1 </tspan>
<tspan x="10" y="1322">  ├─┬ egg-development@1.3.0 </tspan>
<tspan x="10" y="1338">  │ └── debounce@1.0.2 </tspan>
<tspan x="10" y="1354">  ├─┬ egg-i18n@1.1.1 </tspan>
<tspan x="10" y="1370">  │ └─┬ koa-locales@1.5.2 </tspan>
<tspan x="10" y="1386">  │   └── ini@1.3.4 </tspan>
<tspan x="10" y="1402">  ├─┬ egg-jsonp@1.0.0 </tspan>
<tspan x="10" y="1418">  │ └── jsonp-body@1.0.0 </tspan>
<tspan x="10" y="1434">  ├─┬ egg-logger@1.5.0 </tspan>
<tspan x="10" y="1450">  │ ├─┬ chalk@1.1.3 </tspan>
<tspan x="10" y="1466">  │ │ ├── ansi-styles@2.2.1 </tspan>
<tspan x="10" y="1482">  │ │ ├── escape-string-regexp@1.0.5 </tspan>
<tspan x="10" y="1498">  │ │ ├─┬ has-ansi@2.0.0 </tspan>
<tspan x="10" y="1514">  │ │ │ └── ansi-regex@2.1.1 </tspan>
<tspan x="10" y="1530">  │ │ ├── strip-ansi@3.0.1 </tspan>
<tspan x="10" y="1546">  │ │ └── supports-color@2.0.0 </tspan>
<tspan x="10" y="1562">  │ ├── iconv-lite@0.4.16 </tspan>
<tspan x="10" y="1578">  │ └─┬ mkdirp@0.5.1 </tspan>
<tspan x="10" y="1594">  │   └── minimist@0.0.8 </tspan>
<tspan x="10" y="1610">  ├─┬ egg-logrotator@2.2.2 </tspan>
<tspan x="10" y="1626">  │ ├── moment@2.18.1 </tspan>
<tspan x="10" y="1642">  │ └─┬ mz@2.6.0 </tspan>
<tspan x="10" y="1658">  │   └─┬ thenify-all@1.6.0 </tspan>
<tspan x="10" y="1674">  │     └── thenify@3.2.1 </tspan>
<tspan x="10" y="1690">  ├─┬ egg-multipart@1.3.0 </tspan>
<tspan x="10" y="1706">  │ ├─┬ co-busboy@1.3.1 </tspan>
<tspan x="10" y="1722">  │ │ ├── black-hole-stream@0.0.1 </tspan>
<tspan x="10" y="1738">  │ │ ├─┬ busboy@0.2.14 </tspan>
<tspan x="10" y="1754">  │ │ │ ├─┬ dicer@0.2.5 </tspan>
<tspan x="10" y="1770">  │ │ │ │ └── streamsearch@0.1.2 </tspan>
<tspan x="10" y="1786">  │ │ │ └─┬ readable-stream@1.1.14 </tspan>
<tspan x="10" y="1802">  │ │ │   └── string_decoder@0.10.31 </tspan>
<tspan x="10" y="1818">  │ │ └── chan@0.6.1 </tspan>
<tspan x="10" y="1834">  │ └─┬ humanize-bytes@1.0.1 </tspan>
<tspan x="10" y="1850">  │   └── bytes@2.2.0 </tspan>
<tspan x="10" y="1866">  ├─┬ egg-onerror@1.3.0 </tspan>
<tspan x="10" y="1882">  │ ├── escape-html@1.0.3 </tspan>
<tspan x="10" y="1898">  │ └── koa-onerror@3.1.0 </tspan>
<tspan x="10" y="1914">  ├─┬ egg-schedule@2.3.0 </tspan>
<tspan x="10" y="1930">  │ └─┬ cron-parser@2.4.0 </tspan>
<tspan x="10" y="1946">  │   ├─┬ is-nan@1.2.1 </tspan>
<tspan x="10" y="1962">  │   │ └─┬ define-properties@1.1.2 </tspan>
<tspan x="10" y="1978">  │   │   ├── foreach@2.0.5 </tspan>
<tspan x="10" y="1994">  │   │   └── object-keys@1.0.11 </tspan>
<tspan x="10" y="2010">  │   └── moment-timezone@0.5.13 </tspan>
<tspan x="10" y="2026">  ├─┬ egg-security@1.9.0 </tspan>
<tspan x="10" y="2042">  │ ├─┬ csrf@3.0.6 </tspan>
<tspan x="10" y="2058">  │ │ ├── tsscmp@1.0.5 </tspan>
<tspan x="10" y="2074">  │ │ └─┬ uid-safe@2.1.4 </tspan>
<tspan x="10" y="2090">  │ │   └── random-bytes@1.0.0 </tspan>
<tspan x="10" y="2106">  │ ├── extend@3.0.0 </tspan>
<tspan x="10" y="2122">  │ ├── koa-compose@2.5.1 </tspan>
<tspan x="10" y="2138">  │ ├── methods@1.1.2 </tspan>
<tspan x="10" y="2154">  │ ├── platform@1.3.4 </tspan>
<tspan x="10" y="2170">  │ ├── rndm@1.2.0 </tspan>
<tspan x="10" y="2186">  │ └─┬ xss@0.3.3 </tspan>
<tspan x="10" y="2202">  │   ├─┬ commander@2.9.0 </tspan>
<tspan x="10" y="2218">  │   │ └── graceful-readlink@1.0.1 </tspan>
<tspan x="10" y="2234">  │   └── cssfilter@0.0.9 </tspan>
<tspan x="10" y="2250">  ├─┬ egg-session@2.1.0 </tspan>
<tspan x="10" y="2266">  │ └─┬ koa-session@4.0.1 </tspan>
<tspan x="10" y="2282">  │   └── crc@3.4.4 </tspan>
<tspan x="10" y="2298">  ├─┬ egg-static@1.3.0 </tspan>
<tspan x="10" y="2314">  │ └─┬ koa-static-cache@4.0.0 </tspan>
<tspan x="10" y="2330">  │   ├── compressible@2.0.10 </tspan>
<tspan x="10" y="2346">  │   ├── fs-readdir-recursive@1.0.0 </tspan>
<tspan x="10" y="2362">  │   └── mz@2.4.0 </tspan>
<tspan x="10" y="2378">  ├── egg-view@1.1.0 </tspan>
<tspan x="10" y="2394">  ├─┬ egg-watcher@2.1.1 </tspan>
<tspan x="10" y="2410">  │ ├── camelcase@4.1.0 </tspan>
<tspan x="10" y="2426">  │ └─┬ wt@1.1.1 </tspan>
<tspan x="10" y="2442">  │   ├── ndir@0.1.5 </tspan>
<tspan x="10" y="2458">  │   └─┬ sdk-base@2.0.1 </tspan>
<tspan x="10" y="2474">  │     └── get-ready@1.0.0 </tspan>
<tspan x="10" y="2490">  ├── extend2@1.0.0 </tspan>
<tspan x="10" y="2506">  ├── graceful@1.0.1 </tspan>
<tspan x="10" y="2522">  ├─┬ is-type-of@1.0.0 </tspan>
<tspan x="10" y="2538">  │ ├── core-util-is@1.0.2 </tspan>
<tspan x="10" y="2554">  │ ├── is-class@0.0.4 </tspan>
<tspan x="10" y="2570">  │ └── isstream@0.1.2 </tspan>
<tspan x="10" y="2586">  ├─┬ koa-bodyparser@2.5.0 </tspan>
<tspan x="10" y="2602">  │ ├─┬ co-body@5.1.1 </tspan>
<tspan x="10" y="2618">  │ │ ├── inflation@2.0.0 </tspan>
<tspan x="10" y="2634">  │ │ └─┬ raw-body@2.2.0 </tspan>
<tspan x="10" y="2650">  │ │   ├── bytes@2.4.0 </tspan>
<tspan x="10" y="2666">  │ │   ├── iconv-lite@0.4.15 </tspan>
<tspan x="10" y="2682">  │ │   └── unpipe@1.0.0 </tspan>
<tspan x="10" y="2698">  │ └── copy-to@2.0.1 </tspan>
<tspan x="10" y="2714">  ├── koa-is-json@1.0.0 </tspan>
<tspan x="10" y="2730">  ├─┬ mime-types@2.1.15 </tspan>
<tspan x="10" y="2746">  │ └── mime-db@1.27.0 </tspan>
<tspan x="10" y="2762">  ├── sendmessage@1.1.0 </tspan>
<tspan x="10" y="2778">  ├─┬ urllib@2.22.0 </tspan>
<tspan x="10" y="2794">  │ ├── any-promise@1.3.0 </tspan>
<tspan x="10" y="2810">  │ ├── content-type@1.0.2 </tspan>
<tspan x="10" y="2826">  │ ├─┬ default-user-agent@1.0.0 </tspan>
<tspan x="10" y="2842">  │ │ └─┬ os-name@1.0.3 </tspan>
<tspan x="10" y="2858">  │ │   ├─┬ osx-release@1.1.0 </tspan>
<tspan x="10" y="2874">  │ │   │ └── minimist@1.2.0 </tspan>
<tspan x="10" y="2890">  │ │   └─┬ win-release@1.1.1 </tspan>
<tspan x="10" y="2906">  │ │     └── semver@5.3.0 </tspan>
<tspan x="10" y="2922">  │ ├─┬ digest-header@0.0.1 </tspan>
<tspan x="10" y="2938">  │ │ └─┬ utility@0.1.11 </tspan>
<tspan x="10" y="2954">  │ │   └── address@1.0.1 </tspan>
<tspan x="10" y="2970">  │ ├── ee-first@1.1.1 </tspan>
<tspan x="10" y="2986">  │ ├── qs@6.4.0 </tspan>
<tspan x="10" y="3002">  │ └── statuses@1.3.1 </tspan>
<tspan x="10" y="3018">  └── utility@1.12.0</tspan>
</text>
</svg>
